HIERARCHY
ROOT root
{
	OFFSET	0	13.1	24.9
	CHANNELS 6  Xposition Yposition Zposition Xrotation Yrotation Zrotation
	JOINT spine_1
	{
		OFFSET	0	9.99999	0
		CHANNELS 3  Xrotation Yrotation Zrotation
		JOINT spine_2
		{
			OFFSET	0	112	-10
			CHANNELS 3  Xrotation Yrotation Zrotation
			JOINT spine_3
			{
				OFFSET	0	206.5	19.3
				CHANNELS 3  Xrotation Yrotation Zrotation
				JOINT spine_4
				{
					OFFSET	0	110.4	14.6
					CHANNELS 3  Xrotation Yrotation Zrotation
					JOINT neck_1
					{
						OFFSET	0	71.8	-50.3
						CHANNELS 3  Xrotation Yrotation Zrotation
						JOINT neck_2
						{
							OFFSET	0	86.2	-25.8
							CHANNELS 3  Xrotation Yrotation Zrotation
							JOINT head_ee
							{
								OFFSET	0	179.8	-8.7
								CHANNELS 3  Xrotation Yrotation Zrotation
								End Site
								{
									OFFSET	1	0	0
								}
							}
						}
					}
					JOINT left_clavicle
					{
						OFFSET	-43.2	22.4	-70.8
						CHANNELS 3  Xrotation Yrotation Zrotation
						JOINT left_shoulder
						{
							OFFSET	-93.9	-5.79999	48.7
							CHANNELS 3  Xrotation Yrotation Zrotation
							JOINT left_elbow
							{
								OFFSET	-291.4	-30.8	15.2
								CHANNELS 3  Xrotation Yrotation Zrotation
								JOINT left_lowarm_twist
								{
									OFFSET	-110.7	-3.89999	13.6
									CHANNELS 3  Xrotation Yrotation Zrotation
									JOINT left_hand
									{
										OFFSET	-110.7	-3.89999	13.6
										CHANNELS 3  Xrotation Yrotation Zrotation
										JOINT left_ee
										{
											OFFSET	-80.8	-5.10001	12.1
											CHANNELS 3  Xrotation Yrotation Zrotation
											End Site
											{
												OFFSET	1	0	0
											}
										}
									}
								}
							}
						}
					}
					JOINT right_clavicle
					{
						OFFSET	43.2	22.4	-70.8
						CHANNELS 3  Xrotation Yrotation Zrotation
						JOINT right_shoulder
						{
							OFFSET	93.9	-5.79999	48.7
							CHANNELS 3  Xrotation Yrotation Zrotation
							JOINT right_elbow
							{
								OFFSET	291.4	-30.8	15.2
								CHANNELS 3  Xrotation Yrotation Zrotation
								JOINT right_lowarm_twist
								{
									OFFSET	110.7	-3.89999	13.6
									CHANNELS 3  Xrotation Yrotation Zrotation
									JOINT right_hand
									{
										OFFSET	110.7	-3.89999	13.6
										CHANNELS 3  Xrotation Yrotation Zrotation
										JOINT right_ee
										{
											OFFSET	80.8	-5.10001	12.1
											CHANNELS 3  Xrotation Yrotation Zrotation
											End Site
											{
												OFFSET	1	0	0
											}
										}
									}
								}
							}
						}
					}
				}
			}
		}
	}
	JOINT left_hip
	{
		OFFSET	-82.8	-127.5	0.300001
		CHANNELS 3  Xrotation Yrotation Zrotation
		JOINT left_knee
		{
			OFFSET	-28.2	-396.7	2.2
			CHANNELS 3  Xrotation Yrotation Zrotation
			JOINT left_ankle
			{
				OFFSET	-11.7	-411.3	35.4
				CHANNELS 3  Xrotation Yrotation Zrotation
				JOINT left_toes
				{
					OFFSET	0	-60	-88.6
					CHANNELS 3  Xrotation Yrotation Zrotation
					JOINT left_foot_ee
					{
						OFFSET	-22.5	-16.5	-42.2
						CHANNELS 3  Xrotation Yrotation Zrotation
						End Site
						{
							OFFSET	1	0	0
						}
					}
				}
			}
		}
	}
	JOINT right_hip
	{
		OFFSET	82.8	-127.5	0.300001
		CHANNELS 3  Xrotation Yrotation Zrotation
		JOINT right_knee
		{
			OFFSET	28.2	-396.7	2.2
			CHANNELS 3  Xrotation Yrotation Zrotation
			JOINT right_ankle
			{
				OFFSET	11.7	-411.3	35.4
				CHANNELS 3  Xrotation Yrotation Zrotation
				JOINT right_toes
				{
					OFFSET	0	-60	-88.6
					CHANNELS 3  Xrotation Yrotation Zrotation
					JOINT right_foot_ee
					{
						OFFSET	22.5	-16.5	-42.2
						CHANNELS 3  Xrotation Yrotation Zrotation
						End Site
						{
							OFFSET	1	0	0
						}
					}
				}
			}
		}
	}
}
MOTION
Frames: 12
Frame Time: 0.02
1372.05 701.618 -1475.22 -10.9224866146 27.3933747552 -0.780275214245 5.13652 0.631458 3.6088 5.14367 0.400697 3.64161 5.16265 -0.0439586 3.66329 5.14433 0.534755 3.62437 -8.29958 7.9436 -6.53798 -8.20045 19.4205 -4.71339 -0.0 0.0 -0.0 2.53398 5.1638 5.24854 -8.16902 -23.5028 50.8442 1.56637 -37.8063 0.536413 31.5027 0.0174719 -3.97394 1.76956 -6.03167 9.42162 -0.0 0.0 -0.0 10.738 9.31534 -21.4596 -31.1226 36.1281 -71.9078 0.394455 11.0566 -0.0381784 47.3797 0.787673 5.831 -2.34858 -14.1767 8.86459 0.0 0.0 0.0 -3.55713 7.14889 11.846 -5.96962 0.199352 0.894059 41.8691 18.2865 -5.15822 -15.0015 0.0 0.0 -0.0 0.0 -0.0 37.2155 7.36686 -2.82675 3.02707 0.136439 0.444384 4.76185 -11.665 0.68945 -10.8852 0.0 0.0 0.0 0.0 0.0 
1356.78891014 707.091 -1502.43235632 -10.1492233126 27.8170145738 -1.40715758223 4.70594 0.71899 3.69626 4.71341 0.482499 3.73445 4.73899 -0.00173828 3.76545 4.7197 0.592548 3.7186 -7.62964 7.76308 -6.64472 -7.49407 19.1813 -4.9846 -0.0 0.0 -0.0 2.35301 5.81326 4.9626 -10.6216 -22.5086 51.5705 1.4864 -36.3626 0.488191 31.5248 0.0167145 -3.97667 1.98504 -5.02076 11.325 -0.0 0.0 -0.0 11.188 8.48913 -22.4518 -31.2813 36.69 -70.6635 0.393373 11.027 -0.0379711 47.4043 0.789315 5.8337 -2.32818 -13.6335 9.01027 0.0 0.0 0.0 -3.2017 7.13438 11.3886 -10.1576 0.283119 1.53112 40.9802 18.4213 -5.08246 -14.243 0.0 0.0 -0.0 0.0 -0.0 34.4794 7.43285 -2.73257 1.85749 0.0809348 0.273527 6.18135 -7.79952 0.889599 -8.70311 0.0 0.0 0.0 0.0 0.0 
1357.28528948 707.091 -1502.7048417 -10.0550557932 26.793240621 -1.61242837539 4.70594 0.71899 3.69626 4.71341 0.482499 3.73445 4.73899 -0.00173828 3.76545 4.7197 0.592548 3.7186 -7.62964 7.76308 -6.64472 -7.49407 19.1813 -4.9846 -0.0 0.0 -0.0 2.35301 5.81326 4.9626 -10.6216 -22.5086 51.5705 1.4864 -36.3626 0.488191 31.5248 0.0167145 -3.97667 1.98504 -5.02076 11.325 -0.0 0.0 -0.0 11.188 8.48913 -22.4518 -31.2813 36.69 -70.6635 0.393373 11.027 -0.0379711 47.4043 0.789315 5.8337 -2.32818 -13.6335 9.01027 0.0 0.0 0.0 -3.2017 7.13438 11.3886 -10.1576 0.283119 1.53112 40.9802 18.4213 -5.08246 -14.243 0.0 0.0 -0.0 0.0 -0.0 34.4794 7.43285 -2.73257 1.85749 0.0809348 0.273527 6.18135 -7.79952 0.889599 -8.70311 0.0 0.0 0.0 0.0 0.0 
1341.13690675 708.815 -1523.75597497 -8.91026200861 26.9648339726 -2.31727330735 4.44874 0.77267 3.86122 4.45688 0.525597 3.90247 4.48689 0.00212686 3.93765 4.46579 0.623502 3.88805 -6.91985 6.83297 -6.97376 -6.74085 17.7163 -5.63633 -0.0 0.0 -0.0 2.28429 7.37716 4.94698 -12.3554 -20.6803 52.4301 1.38852 -34.5195 0.431423 32.5922 -0.0210133 -4.10777 2.10722 -5.38923 12.0109 -0.0 0.0 -0.0 10.848 8.54185 -21.7012 -29.9898 37.7349 -70.8267 0.492307 13.7056 -0.0591648 46.5878 0.735501 5.7441 -1.92196 -12.9176 6.78952 0.0 0.0 0.0 -2.9792 5.15968 11.3344 -15.4465 0.322072 2.34139 37.9089 19.2366 -4.81427 -12.7454 0.0 0.0 -0.0 0.0 -0.0 32.3005 8.03723 -2.98923 1.50824 0.0650397 0.222296 0.749156 -3.65359 0.109809 -7.24992 0.0 0.0 0.0 0.0 0.0 
1341.90980539 708.815 -1524.23967839 -8.84037566684 26.0678545135 -2.47380524396 4.44874 0.77267 3.86122 4.45688 0.525597 3.90247 4.48689 0.00212686 3.93765 4.46579 0.623502 3.88805 -6.91985 6.83297 -6.97376 -6.74085 17.7163 -5.63633 -0.0 0.0 -0.0 2.28429 7.37716 4.94698 -12.3554 -20.6803 52.4301 1.38852 -34.5195 0.431423 32.5922 -0.0210133 -4.10777 2.10722 -5.38923 12.0109 -0.0 0.0 -0.0 10.848 8.54185 -21.7012 -29.9898 37.7349 -70.8267 0.492307 13.7056 -0.0591648 46.5878 0.735501 5.7441 -1.92196 -12.9176 6.78952 0.0 0.0 0.0 -2.9792 5.15968 11.3344 -15.4465 0.322072 2.34139 37.9089 19.2366 -4.81427 -12.7454 0.0 0.0 -0.0 0.0 -0.0 32.3005 8.03723 -2.98923 1.50824 0.0650397 0.222296 0.749156 -3.65359 0.109809 -7.24992 0.0 0.0 0.0 0.0 0.0 
1343.07850793 708.815 -1524.93934078 -8.74195560715 24.727511846 -2.70326092084 4.44874 0.77267 3.86122 4.45688 0.525597 3.90247 4.48689 0.00212686 3.93765 4.46579 0.623502 3.88805 -6.91985 6.83297 -6.97376 -6.74085 17.7163 -5.63633 -0.0 0.0 -0.0 2.28429 7.37716 4.94698 -12.3554 -20.6803 52.4301 1.38852 -34.5195 0.431423 32.5922 -0.0210133 -4.10777 2.10722 -5.38923 12.0109 -0.0 0.0 -0.0 10.848 8.54185 -21.7012 -29.9898 37.7349 -70.8267 0.492307 13.7056 -0.0591648 46.5878 0.735501 5.7441 -1.92196 -12.9176 6.78952 0.0 0.0 0.0 -2.9792 5.15968 11.3344 -15.4465 0.322072 2.34139 37.9089 19.2366 -4.81427 -12.7454 0.0 0.0 -0.0 0.0 -0.0 32.3005 8.03723 -2.98923 1.50824 0.0650397 0.222296 0.749156 -3.65359 0.109809 -7.24992 0.0 0.0 0.0 0.0 0.0 
1310.53768883 715.315 -1558.88263428 -8.11790922184 27.8098856319 -2.32678460051 4.22932 0.651105 3.86651 4.23754 0.403941 3.90003 4.25971 -0.133973 3.91858 4.23861 0.486096 3.89066 -5.50796 5.46964 -10.7365 -5.05033 18.0574 -10.0075 -0.0 0.0 -0.0 2.13924 7.69292 4.71072 -17.1383 -20.208 55.2997 1.10082 -28.6034 0.280637 32.0127 -0.000228278 -4.03668 1.97415 -3.1262 12.0393 -0.0 0.0 -0.0 10.3448 10.2729 -20.5867 -23.9988 39.6666 -72.7204 0.58004 16.0313 -0.0816817 47.3683 0.786917 5.82976 -2.27188 -13.0475 8.94738 0.0 0.0 0.0 -4.1162 6.17866 11.1156 -19.4773 0.301491 2.95938 34.6339 19.3175 -4.48961 -12.7167 0.0 0.0 -0.0 0.0 -0.0 28.2335 8.04597 -2.90866 -0.0712127 -0.00292591 -0.0105366 0.966265 1.07165 0.143013 -5.65323 0.0 0.0 0.0 0.0 0.0 
1313.20948292 715.315 -1560.78280938 -7.98923761508 26.018659727 -2.61100802143 4.22932 0.651105 3.86651 4.23754 0.403941 3.90003 4.25971 -0.133973 3.91858 4.23861 0.486096 3.89066 -5.50796 5.46964 -10.7365 -5.05033 18.0574 -10.0075 -0.0 0.0 -0.0 2.13924 7.69292 4.71072 -17.1383 -20.208 55.2997 1.10082 -28.6034 0.280637 32.0127 -0.000228278 -4.03668 1.97415 -3.1262 12.0393 -0.0 0.0 -0.0 10.3448 10.2729 -20.5867 -23.9988 39.6666 -72.7204 0.58004 16.0313 -0.0816817 47.3683 0.786917 5.82976 -2.27188 -13.0475 8.94738 0.0 0.0 0.0 -4.1162 6.17866 11.1156 -19.4773 0.301491 2.95938 34.6339 19.3175 -4.48961 -12.7167 0.0 0.0 -0.0 0.0 -0.0 28.2335 8.04597 -2.90866 -0.0712127 -0.00292591 -0.0105366 0.966265 1.07165 0.143013 -5.65323 0.0 0.0 0.0 0.0 0.0 
1298.55670493 727.47 -1581.11793426 -7.54245179436 27.2253452839 -2.92385558137 4.06095 0.724882 4.07608 4.07007 0.464266 4.11386 4.09793 -0.115093 4.13833 4.07444 0.539362 4.1047 -4.57305 4.68979 -10.7478 -4.09309 16.7328 -10.3227 -0.0 0.0 -0.0 1.59415 8.48796 3.80814 -19.6002 -19.3334 56.9166 0.987903 -26.0756 0.228768 31.5391 0.0162262 -3.97843 2.01968 -2.4524 12.6299 -0.0 0.0 -0.0 10.4127 12.2766 -20.7011 -19.8462 39.887 -73.4983 0.612434 16.877 -0.0908576 47.4259 0.790754 5.83605 -2.11813 -13.0119 7.98756 0.0 0.0 0.0 -2.33999 5.98106 10.1111 -21.4793 0.275127 3.26541 31.1789 18.9955 -4.11745 -13.8718 0.0 0.0 -0.0 0.0 -0.0 25.9316 8.0518 -2.40192 -1.21235 -0.0480171 -0.179852 -1.85751 5.13866 -0.28089 -4.83011 0.0 0.0 0.0 0.0 0.0 
1302.47425184 727.47 -1583.7319909 -7.40848888201 25.1496301764 -3.22736267089 4.06095 0.724882 4.07608 4.07007 0.464266 4.11386 4.09793 -0.115093 4.13833 4.07444 0.539362 4.1047 -4.57305 4.68979 -10.7478 -4.09309 16.7328 -10.3227 -0.0 0.0 -0.0 1.59415 8.48796 3.80814 -19.6002 -19.3334 56.9166 0.987903 -26.0756 0.228768 31.5391 0.0162262 -3.97843 2.01968 -2.4524 12.6299 -0.0 0.0 -0.0 10.4127 12.2766 -20.7011 -19.8462 39.887 -73.4983 0.612434 16.877 -0.0908576 47.4259 0.790754 5.83605 -2.11813 -13.0119 7.98756 0.0 0.0 0.0 -2.33999 5.98106 10.1111 -21.4793 0.275127 3.26541 31.1789 18.9955 -4.11745 -13.8718 0.0 0.0 -0.0 0.0 -0.0 25.9316 8.0518 -2.40192 -1.21235 -0.0480171 -0.179852 -1.85751 5.13866 -0.28089 -4.83011 0.0 0.0 0.0 0.0 0.0 
1267.94276949 733.926 -1614.50985266 -6.54743891996 29.0741809351 -2.89642637645 3.75855 0.602686 4.05353 3.76762 0.343748 4.0836 3.78743 -0.25271 4.09023 3.76431 0.395887 4.07888 -5.33901 4.33211 -11.8359 -4.80991 16.8123 -11.3735 -0.0 0.0 -0.0 0.722795 9.3802 2.36719 -21.4035 -18.6404 60.7577 0.699081 -19.1012 0.117622 32.4044 -0.0141974 -4.08475 1.18737 1.79689 8.67932 -0.0 0.0 -0.0 9.89378 12.453 -19.5492 -13.0805 40.972 -75.9611 0.670924 18.3846 -0.108575 46.6656 0.740574 5.75267 -2.17547 -10.4401 9.62503 0.0 0.0 0.0 -0.204246 5.7866 9.22409 -25.7219 0.184014 3.90994 27.9211 17.4813 -3.73151 -14.3561 0.0 0.0 -0.0 0.0 -0.0 23.4707 8.44908 -1.9227 -2.6212 -0.099015 -0.390048 -1.44129 12.8405 -0.227156 -2.94311 0.0 0.0 0.0 0.0 0.0 
1245.96726218 734.437 -1627.78226704 -5.40797142128 29.8300175929 -3.95983739551 3.7218 0.683071 4.18563 3.73144 0.415588 4.22052 3.75718 -0.203595 4.23602 3.73245 0.467352 4.21511 -5.14768 4.01383 -12.4422 -4.56563 16.7101 -12.0946 -0.0 0.0 -0.0 0.208202 9.13632 1.44589 -23.2868 -18.1936 63.1801 0.588127 -16.2431 0.0839295 32.1897 -0.00649999 -4.05842 1.11544 3.5023 8.87412 -0.0 0.0 -0.0 9.60483 12.1092 -18.9239 -10.8242 40.9161 -76.1717 0.655372 17.9862 -0.103721 46.1382 0.706421 5.69445 -2.49049 -10.6712 11.5581 0.0 0.0 0.0 0.793235 6.05906 9.28728 -29.4049 0.0664001 4.46284 26.2544 16.7949 -3.53096 -14.6918 0.0 0.0 -0.0 0.0 -0.0 21.4632 8.7131 -0.660545 -3.30613 -0.121935 -0.492664 1.84262 18.0577 0.299657 -1.16128 0.0 0.0 0.0 0.0 0.0 
